<svg xmlns="http://www.w3.org/2000/svg" viewBox="0 0 192 192" width="192" height="192">
  <defs>
    <radialGradient id="bg4" cx="50%" cy="35%" r="70%">
      <stop offset="0%" style="stop-color:#1d4ed8"/>
      <stop offset="100%" style="stop-color:#0f1419"/>
    </radialGradient>
    <linearGradient id="helmet4" x1="0%" y1="0%" x2="100%" y2="100%">
      <stop offset="0%" style="stop-color:#fef08a"/>
      <stop offset="50%" style="stop-color:#eab308"/>
      <stop offset="100%" style="stop-color:#92400e"/>
    </linearGradient>
    <linearGradient id="wings4" x1="20%" y1="20%" x2="100%" y2="80%">
      <stop offset="0%" style="stop-color:#fef08a"/>
      <stop offset="30%" style="stop-color:#f59e0b"/>
      <stop offset="70%" style="stop-color:#ea580c"/>
      <stop offset="100%" style="stop-color:#7c2d12"/>
    </linearGradient>
    <radialGradient id="eyeGlow" cx="50%" cy="50%" r="60%">
      <stop offset="0%" style="stop-color:#fef08a"/>
      <stop offset="100%" style="stop-color:#eab308"/>
    </radialGradient>
  </defs>
  
  <!-- Background - rounded square for modern app icon -->
  <rect width="192" height="192" fill="url(#bg4)" rx="32" ry="32"/>
  
  <!-- Hawk positioned for square format -->
  <g transform="translate(96,100)">
    <!-- Wing shadows for depth -->
    <path d="M-42,-18 L-72,-35 L-82,-24 L-77,-8 L-67,2 L-52,7 L-40,4 Z" fill="#0f1419" opacity="0.4" transform="translate(3,3)"/>
    <path d="M42,-18 L72,-35 L82,-24 L77,-8 L67,2 L52,7 L40,4 Z" fill="#0f1419" opacity="0.4" transform="translate(3,3)"/>
    
    <!-- Wings - geometric and sharp -->
    <!-- Left wing -->
    <path d="M-42,-18 L-72,-35 L-82,-24 L-77,-8 L-67,2 L-52,7 L-40,4 Z" fill="url(#wings4)" stroke="#0f1419" stroke-width="2.5"/>
    <!-- Wing feather details -->
    <path d="M-47,-14 L-67,-25 L-72,-19 L-62,-5 L-52,-2 L-47,-8 Z" fill="#fbbf24" opacity="0.8"/>
    <path d="M-52,-10 L-67,-18 L-70,-13 L-60,-3 L-54,-6 Z" fill="#fcd34d" opacity="0.9"/>
    <path d="M-57,-6 L-72,-12 L-74,-8 L-64,0 L-60,-3 Z" fill="#fed7aa" opacity="0.6"/>
    <path d="M-62,-2 L-77,-6 L-78,-3 L-68,3 L-65,1 Z" fill="#fef3c7" opacity="0.5"/>
    
    <!-- Right wing -->
    <path d="M42,-18 L72,-35 L82,-24 L77,-8 L67,2 L52,7 L40,4 Z" fill="url(#wings4)" stroke="#0f1419" stroke-width="2.5"/>
    <!-- Wing feather details -->
    <path d="M47,-14 L67,-25 L72,-19 L62,-5 L52,-2 L47,-8 Z" fill="#fbbf24" opacity="0.8"/>
    <path d="M52,-10 L67,-18 L70,-13 L60,-3 L54,-6 Z" fill="#fcd34d" opacity="0.9"/>
    <path d="M57,-6 L72,-12 L74,-8 L64,0 L60,-3 Z" fill="#fed7aa" opacity="0.6"/>
    <path d="M62,-2 L77,-6 L78,-3 L68,3 L65,1 Z" fill="#fef3c7" opacity="0.5"/>
    
    <!-- Body - streamlined -->
    <ellipse cx="0" cy="5" rx="20" ry="35" fill="#0f1419" stroke="#1d4ed8" stroke-width="2"/>
    <ellipse cx="0" cy="5" rx="14" ry="28" fill="#1e293b" opacity="0.5"/>
    
    <!-- Head - alert and focused -->
    <circle cx="0" cy="-22" r="26" fill="#0f1419" stroke="#1d4ed8" stroke-width="2"/>
    
    <!-- Safety helmet - premium construction style -->
    <path d="M-26,-46 Q0,-58 26,-46 L24,-32 Q0,-38 -24,-32 Z" fill="url(#helmet4)" stroke="#0f1419" stroke-width="3"/>
    <!-- Helmet structural details -->
    <ellipse cx="0" cy="-46" rx="22" ry="4" fill="#92400e"/>
    <ellipse cx="0" cy="-32" rx="24" ry="3" fill="#a16207" opacity="0.8"/>
    <!-- Ventilation slots -->
    <rect x="-10" y="-52" width="3" height="10" fill="#0f1419" rx="1.5"/>
    <rect x="-4" y="-52" width="3" height="10" fill="#0f1419" rx="1.5"/>
    <rect x="2" y="-52" width="3" height="10" fill="#0f1419" rx="1.5"/>
    <rect x="8" y="-52" width="3" height="10" fill="#0f1419" rx="1.5"/>
    <!-- Side reinforcement -->
    <path d="M-20,-32 Q-22,-28 -18,-24" fill="none" stroke="#92400e" stroke-width="3"/>
    <path d="M20,-32 Q22,-28 18,-24" fill="none" stroke="#92400e" stroke-width="3"/>
    
    <!-- Eyes - intense and watchful -->
    <ellipse cx="-12" cy="-24" rx="7" ry="6" fill="url(#eyeGlow)" stroke="#92400e" stroke-width="1"/>
    <ellipse cx="12" cy="-24" rx="7" ry="6" fill="url(#eyeGlow)" stroke="#92400e" stroke-width="1"/>
    <ellipse cx="-12" cy="-24" rx="5" ry="4" fill="#0f1419"/>
    <ellipse cx="12" cy="-24" rx="5" ry="4" fill="#0f1419"/>
    <!-- Pupils with intense focus -->
    <ellipse cx="-12" cy="-24" rx="2" ry="3" fill="#fef08a"/>
    <ellipse cx="12" cy="-24" rx="2" ry="3" fill="#fef08a"/>
    <!-- Eye highlights -->
    <circle cx="-13" cy="-26" r="1.8" fill="#fef3c7"/>
    <circle cx="11" cy="-26" r="1.8" fill="#fef3c7"/>
    
    <!-- Beak - strong and defined -->
    <path d="M0,-12 L-7,0 L0,4 L7,0 Z" fill="#eab308" stroke="#0f1419" stroke-width="2"/>
    <path d="M0,-8 L-3,-2 L3,-2 Z" fill="#f59e0b"/>
    <ellipse cx="-2.5" cy="-6" rx="1.2" ry="1" fill="#0f1419"/>
    <ellipse cx="2.5" cy="-6" rx="1.2" ry="1" fill="#0f1419"/>
    
    <!-- Chest detail - construction badge -->
    <circle cx="0" cy="12" r="10" fill="#eab308" opacity="0.3" stroke="#f59e0b" stroke-width="1"/>
    <path d="M0,6 L-6,16 L0,20 L6,16 Z" fill="#fbbf24" opacity="0.7"/>
    <circle cx="0" cy="12" r="3" fill="#fef08a" opacity="0.9"/>
  </g>
  
  <!-- Premium border highlight -->
  <rect width="192" height="192" fill="none" stroke="#eab308" stroke-width="2" opacity="0.4" rx="32" ry="32"/>
</svg>