<svg xmlns="http://www.w3.org/2000/svg" viewBox="0 0 192 192" width="192" height="192">
  <defs>
    <radialGradient id="bg5" cx="50%" cy="30%" r="85%">
      <stop offset="0%" style="stop-color:#1e40af"/>
      <stop offset="70%" style="stop-color:#1e3a8a"/>
      <stop offset="100%" style="stop-color:#0c0f1a"/>
    </radialGradient>
    <linearGradient id="helmet5" x1="30%" y1="0%" x2="70%" y2="100%">
      <stop offset="0%" style="stop-color:#fffbeb"/>
      <stop offset="20%" style="stop-color:#fef3c7"/>
      <stop offset="60%" style="stop-color:#fbbf24"/>
      <stop offset="100%" style="stop-color:#78350f"/>
    </linearGradient>
    <linearGradient id="wings5" x1="0%" y1="30%" x2="100%" y2="100%">
      <stop offset="0%" style="stop-color:#fffbeb"/>
      <stop offset="25%" style="stop-color:#fbbf24"/>
      <stop offset="65%" style="stop-color:#f59e0b"/>
      <stop offset="100%" style="stop-color:#451a03"/>
    </linearGradient>
    <filter id="innerGlow" x="-20%" y="-20%" width="140%" height="140%">
      <feGaussianBlur stdDeviation="3" result="coloredBlur"/>
      <feMerge> 
        <feMergeNode in="coloredBlur"/>
        <feMergeNode in="SourceGraphic"/>
      </feMerge>
    </filter>
    <filter id="dropShadow" x="-50%" y="-50%" width="200%" height="200%">
      <feDropShadow dx="2" dy="2" stdDeviation="2" flood-color="#0c0f1a" flood-opacity="0.5"/>
    </filter>
  </defs>
  
  <!-- Background with subtle texture -->
  <circle cx="96" cy="96" r="88" fill="url(#bg5)" stroke="#1e40af" stroke-width="3"/>
  <circle cx="96" cy="96" r="84" fill="none" stroke="#1e3a8a" stroke-width="1" opacity="0.3"/>
  
  <!-- Main hawk design -->
  <g transform="translate(96,96)" filter="url(#dropShadow)">
    <!-- Wing base structure -->
    <path d="M-38,-25 L-68,-42 L-78,-30 L-73,-14 L-63,-4 L-48,1 L-36,-2 Z" fill="#0c0f1a" opacity="0.6" transform="translate(1,1)"/>
    <path d="M38,-25 L68,-42 L78,-30 L73,-14 L63,-4 L48,1 L36,-2 Z" fill="#0c0f1a" opacity="0.6" transform="translate(1,1)"/>
    
    <!-- Wings - premium layered design -->
    <!-- Left wing primary -->
    <path d="M-38,-25 L-68,-42 L-78,-30 L-73,-14 L-63,-4 L-48,1 L-36,-2 Z" fill="url(#wings5)" stroke="#0c0f1a" stroke-width="3"/>
    <!-- Left wing segments - professional feather pattern -->
    <path d="M-43,-21 L-63,-32 L-68,-26 L-58,-12 L-48,-9 L-43,-15 Z" fill="#fbbf24" opacity="0.9"/>
    <path d="M-48,-17 L-63,-25 L-66,-20 L-58,-8 L-52,-11 Z" fill="#fcd34d" opacity="0.8"/>
    <path d="M-53,-13 L-68,-20 L-70,-16 L-62,-6 L-57,-9 Z" fill="#fde68a" opacity="0.7"/>
    <path d="M-58,-9 L-73,-15 L-74,-12 L-68,-4 L-63,-6 Z" fill="#fef3c7" opacity="0.6"/>
    <path d="M-63,-5 L-78,-10 L-79,-7 L-73,-1 L-68,-3 Z" fill="#fffbeb" opacity="0.5"/>
    
    <!-- Right wing primary -->
    <path d="M38,-25 L68,-42 L78,-30 L73,-14 L63,-4 L48,1 L36,-2 Z" fill="url(#wings5)" stroke="#0c0f1a" stroke-width="3"/>
    <!-- Right wing segments -->
    <path d="M43,-21 L63,-32 L68,-26 L58,-12 L48,-9 L43,-15 Z" fill="#fbbf24" opacity="0.9"/>
    <path d="M48,-17 L63,-25 L66,-20 L58,-8 L52,-11 Z" fill="#fcd34d" opacity="0.8"/>
    <path d="M53,-13 L68,-20 L70,-16 L62,-6 L57,-9 Z" fill="#fde68a" opacity="0.7"/>
    <path d="M58,-9 L73,-15 L74,-12 L68,-4 L63,-6 Z" fill="#fef3c7" opacity="0.6"/>
    <path d="M63,-5 L78,-10 L79,-7 L73,-1 L68,-3 Z" fill="#fffbeb" opacity="0.5"/>
    
    <!-- Body - powerful and streamlined -->
    <ellipse cx="0" cy="8" rx="24" ry="40" fill="#0c0f1a" stroke="#1e40af" stroke-width="3"/>
    <ellipse cx="0" cy="8" rx="18" ry="32" fill="#1e293b" opacity="0.4"/>
    <ellipse cx="0" cy="8" rx="12" ry="24" fill="#334155" opacity="0.3"/>
    
    <!-- Head - commanding presence -->
    <circle cx="0" cy="-20" r="28" fill="#0c0f1a" stroke="#1e40af" stroke-width="3"/>
    <circle cx="0" cy="-20" r="24" fill="#1e293b" opacity="0.3"/>
    
    <!-- Safety helmet - executive construction style -->
    <path d="M-28,-48 Q0,-62 28,-48 L26,-34 Q0,-40 -26,-34 Z" fill="url(#helmet5)" stroke="#0c0f1a" stroke-width="4" filter="url(#innerGlow)"/>
    <!-- Helmet premium details -->
    <ellipse cx="0" cy="-48" rx="24" ry="5" fill="#78350f" opacity="0.8"/>
    <ellipse cx="0" cy="-34" rx="26" ry="4" fill="#92400e" opacity="0.6"/>
    <!-- Professional ventilation system -->
    <rect x="-12" y="-56" width="4" height="12" fill="#0c0f1a" rx="2"/>
    <rect x="-5" y="-56" width="4" height="12" fill="#0c0f1a" rx="2"/>
    <rect x="2" y="-56" width="4" height="12" fill="#0c0f1a" rx="2"/>
    <rect x="9" y="-56" width="4" height="12" fill="#0c0f1a" rx="2"/>
    <!-- Helmet reinforcement bands -->
    <path d="M-22,-34 Q-24,-30 -20,-26" fill="none" stroke="#78350f" stroke-width="4"/>
    <path d="M22,-34 Q24,-30 20,-26" fill="none" stroke="#78350f" stroke-width="4"/>
    <!-- Front logo area -->
    <circle cx="0" cy="-41" r="4" fill="#fbbf24" opacity="0.8"/>
    <circle cx="0" cy="-41" r="2" fill="#fffbeb"/>
    
    <!-- Eyes - commanding and vigilant -->
    <ellipse cx="-13" cy="-22" rx="8" ry="7" fill="#fbbf24" stroke="#78350f" stroke-width="2" filter="url(#innerGlow)"/>
    <ellipse cx="13" cy="-22" rx="8" ry="7" fill="#fbbf24" stroke="#78350f" stroke-width="2" filter="url(#innerGlow)"/>
    <ellipse cx="-13" cy="-22" rx="6" ry="5" fill="#0c0f1a"/>
    <ellipse cx="13" cy="-22" rx="6" ry="5" fill="#0c0f1a"/>
    <!-- Intense pupils -->
    <ellipse cx="-13" cy="-22" rx="3" ry="4" fill="#fbbf24" opacity="0.8"/>
    <ellipse cx="13" cy="-22" rx="3" ry="4" fill="#fbbf24" opacity="0.8"/>
    <!-- Eye reflections -->
    <circle cx="-15" cy="-25" r="2" fill="#fffbeb"/>
    <circle cx="11" cy="-25" r="2" fill="#fffbeb"/>
    
    <!-- Beak - authoritative -->
    <path d="M0,-8 L-8,4 L0,8 L8,4 Z" fill="#fbbf24" stroke="#0c0f1a" stroke-width="3"/>
    <path d="M0,-4 L-4,2 L0,4 L4,2 Z" fill="#fcd34d"/>
    <ellipse cx="-3" cy="-2" rx="1.5" ry="1.2" fill="#0c0f1a"/>
    <ellipse cx="3" cy="-2" rx="1.5" ry="1.2" fill="#0c0f1a"/>
    
    <!-- Chest emblem - premium construction shield -->
    <circle cx="0" cy="15" r="12" fill="#fbbf24" opacity="0.2" stroke="#f59e0b" stroke-width="2"/>
    <path d="M0,8 L-8,20 L0,26 L8,20 Z" fill="#fbbf24" opacity="0.8" stroke="#78350f" stroke-width="1"/>
    <circle cx="0" cy="15" r="4" fill="#fffbeb" opacity="0.9"/>
    <circle cx="0" cy="15" r="2" fill="#fbbf24"/>
  </g>
  
  <!-- Outer glow effect -->
  <circle cx="96" cy="96" r="88" fill="none" stroke="#fbbf24" stroke-width="1" opacity="0.5"/>
  <circle cx="96" cy="96" r="90" fill="none" stroke="#fffbeb" stroke-width="0.5" opacity="0.3"/>
</svg>