<svg xmlns="http://www.w3.org/2000/svg" viewBox="0 0 192 192" width="192" height="192">
  <defs>
    <radialGradient id="bg2" cx="50%" cy="30%" r="80%">
      <stop offset="0%" style="stop-color:#1e40af"/>
      <stop offset="100%" style="stop-color:#0c1a3d"/>
    </radialGradient>
    <linearGradient id="helmet2" x1="0%" y1="0%" x2="0%" y2="100%">
      <stop offset="0%" style="stop-color:#facc15"/>
      <stop offset="30%" style="stop-color:#eab308"/>
      <stop offset="100%" style="stop-color:#ca8a04"/>
    </linearGradient>
    <linearGradient id="wings2" x1="0%" y1="0%" x2="100%" y2="50%">
      <stop offset="0%" style="stop-color:#facc15"/>
      <stop offset="60%" style="stop-color:#f59e0b"/>
      <stop offset="100%" style="stop-color:#dc2626"/>
    </linearGradient>
  </defs>
  
  <!-- Background -->
  <rect width="192" height="192" fill="url(#bg2)" rx="20"/>
  
  <!-- Wings - more angular design -->
  <g transform="translate(96,96)">
    <!-- Left wing - angular segments -->
    <path d="M-35,-25 L-65,-40 L-75,-30 L-70,-15 L-60,-5 L-45,0 L-35,-10 Z" fill="url(#wings2)" stroke="#0c1a3d" stroke-width="2"/>
    <path d="M-40,-20 L-55,-30 L-50,-15 L-40,-12 Z" fill="#fcd34d" opacity="0.7"/>
    <path d="M-50,-10 L-65,-20 L-60,-8 L-50,-5 Z" fill="#fde68a" opacity="0.5"/>
    <path d="M-45,-5 L-60,0 L-55,8 L-45,3 Z" fill="#fed7aa" opacity="0.6"/>
    
    <!-- Right wing - angular segments -->
    <path d="M35,-25 L65,-40 L75,-30 L70,-15 L60,-5 L45,0 L35,-10 Z" fill="url(#wings2)" stroke="#0c1a3d" stroke-width="2"/>
    <path d="M40,-20 L55,-30 L50,-15 L40,-12 Z" fill="#fcd34d" opacity="0.7"/>
    <path d="M50,-10 L65,-20 L60,-8 L50,-5 Z" fill="#fde68a" opacity="0.5"/>
    <path d="M45,-5 L60,0 L55,8 L45,3 Z" fill="#fed7aa" opacity="0.6"/>
    
    <!-- Body - more defined -->
    <path d="M-20,0 Q-25,15 -15,35 Q0,45 15,35 Q25,15 20,0 L15,-5 Q0,0 -15,-5 Z" fill="#0c1a3d" stroke="#1e40af" stroke-width="2"/>
    
    <!-- Head - larger and more prominent -->
    <circle cx="0" cy="-18" r="25" fill="#0c1a3d" stroke="#1e40af" stroke-width="2"/>
    
    <!-- Safety helmet - more detailed -->
    <path d="M-22,-40 Q0,-50 22,-40 L20,-28 Q0,-33 -20,-28 Z" fill="url(#helmet2)" stroke="#0c1a3d" stroke-width="2"/>
    <!-- Helmet vents -->
    <rect x="-6" y="-45" width="3" height="10" fill="#0c1a3d" rx="1"/>
    <rect x="-1" y="-45" width="3" height="10" fill="#0c1a3d" rx="1"/>
    <rect x="4" y="-45" width="3" height="10" fill="#0c1a3d" rx="1"/>
    <!-- Helmet rim -->
    <ellipse cx="0" cy="-28" rx="22" ry="4" fill="#ca8a04" opacity="0.8"/>
    
    <!-- Eyes - more intense -->
    <ellipse cx="-9" cy="-20" rx="5" ry="4" fill="#facc15"/>
    <ellipse cx="9" cy="-20" rx="5" ry="4" fill="#facc15"/>
    <ellipse cx="-9" cy="-20" rx="3" ry="2.5" fill="#0c1a3d"/>
    <ellipse cx="9" cy="-20" rx="3" ry="2.5" fill="#0c1a3d"/>
    <!-- Eye highlights -->
    <circle cx="-10" cy="-21" r="1" fill="#facc15"/>
    <circle cx="8" cy="-21" r="1" fill="#facc15"/>
    
    <!-- Beak - more prominent -->
    <path d="M0,-10 L-5,2 L0,5 L5,2 Z" fill="#eab308" stroke="#0c1a3d" stroke-width="1"/>
    <circle cx="-1.5" cy="-5" r="0.8" fill="#0c1a3d"/>
    <circle cx="1.5" cy="-5" r="0.8" fill="#0c1a3d"/>
    
    <!-- Chest emblem -->
    <circle cx="0" cy="15" r="8" fill="#eab308" opacity="0.4"/>
    <path d="M0,10 L-4,18 L4,18 Z" fill="#facc15" opacity="0.6"/>
  </g>
</svg>