<svg xmlns="http://www.w3.org/2000/svg" viewBox="0 0 192 192" width="192" height="192">
  <defs>
    <radialGradient id="bg" cx="50%" cy="30%" r="70%">
      <stop offset="0%" style="stop-color:#1e3a8a"/>
      <stop offset="100%" style="stop-color:#0f172a"/>
    </radialGradient>
    <linearGradient id="helmet" x1="0%" y1="0%" x2="0%" y2="100%">
      <stop offset="0%" style="stop-color:#fbbf24"/>
      <stop offset="50%" style="stop-color:#f59e0b"/>
      <stop offset="100%" style="stop-color:#d97706"/>
    </linearGradient>
    <linearGradient id="wings" x1="0%" y1="0%" x2="100%" y2="100%">
      <stop offset="0%" style="stop-color:#fbbf24"/>
      <stop offset="50%" style="stop-color:#f59e0b"/>
      <stop offset="100%" style="stop-color:#ea580c"/>
    </linearGradient>
  </defs>
  
  <!-- Background circle -->
  <circle cx="96" cy="96" r="88" fill="url(#bg)" stroke="#1e3a8a" stroke-width="2"/>
  
  <!-- Wings -->
  <g transform="translate(96,96)">
    <!-- Left wing -->
    <path d="M-45,-20 L-75,-35 L-85,-25 L-80,-10 L-75,5 L-65,15 L-50,10 L-40,5 Z" fill="url(#wings)" stroke="#0f172a" stroke-width="1"/>
    <path d="M-50,-15 L-70,-25 L-75,-20 L-65,-5 L-55,-2 Z" fill="#fb923c" opacity="0.8"/>
    <path d="M-60,-8 L-70,-15 L-68,-10 L-62,-5 Z" fill="#fed7aa" opacity="0.6"/>
    
    <!-- Right wing -->
    <path d="M45,-20 L75,-35 L85,-25 L80,-10 L75,5 L65,15 L50,10 L40,5 Z" fill="url(#wings)" stroke="#0f172a" stroke-width="1"/>
    <path d="M50,-15 L70,-25 L75,-20 L65,-5 L55,-2 Z" fill="#fb923c" opacity="0.8"/>
    <path d="M60,-8 L70,-15 L68,-10 L62,-5 Z" fill="#fed7aa" opacity="0.6"/>
    
    <!-- Body -->
    <ellipse cx="0" cy="10" rx="25" ry="35" fill="#0f172a" stroke="#374151" stroke-width="1"/>
    
    <!-- Head -->
    <circle cx="0" cy="-15" r="22" fill="#0f172a" stroke="#374151" stroke-width="1"/>
    
    <!-- Safety helmet -->
    <path d="M-20,-35 Q0,-45 20,-35 L18,-25 Q0,-30 -18,-25 Z" fill="url(#helmet)" stroke="#0f172a" stroke-width="2"/>
    <rect x="-3" y="-42" width="6" height="8" fill="#0f172a" rx="2"/>
    <rect x="-8" y="-42" width="6" height="8" fill="#0f172a" rx="2"/>
    <rect x="2" y="-42" width="6" height="8" fill="#0f172a" rx="2"/>
    
    <!-- Eyes -->
    <circle cx="-8" cy="-18" r="4" fill="#fbbf24"/>
    <circle cx="8" cy="-18" r="4" fill="#fbbf24"/>
    <circle cx="-8" cy="-18" r="2" fill="#0f172a"/>
    <circle cx="8" cy="-18" r="2" fill="#0f172a"/>
    
    <!-- Beak -->
    <path d="M0,-8 L-4,0 L4,0 Z" fill="#f59e0b" stroke="#0f172a" stroke-width="1"/>
    <circle cx="-1" cy="-4" r="0.5" fill="#0f172a"/>
    <circle cx="1" cy="-4" r="0.5" fill="#0f172a"/>
    
    <!-- Chest detail -->
    <path d="M0,5 L-8,20 L0,30 L8,20 Z" fill="#f59e0b" opacity="0.3"/>
  </g>
</svg>